{"title":"The.Hunter.2011.BRRip.XviD.AC3-EMBER.","uid":6986728,"size":1646847016,"categoryP":"video","categoryS":"movies","magnet":"?xt=urn:btih:4f58018e81c35055af168f54e403f34343d9f865&amp;dn=The.Hunter.2011.BRRip.XviD.AC3-EMBER.&amp;tr=udp%3A%2F%2Ftracker.openbittorrent.com%3A80&amp;tr=udp%3A%2F%2Fopen.demonii.com%3A1337&amp;tr=udp%3A%2F%2Ftracker.coppersurfer.tk%3A6969&amp;tr=udp%3A%2F%2Fexodus.desync.com%3A6969","seeders":0,"leechers":0,"uploader":"moviesp2p","files":3,"time":1327594905,"description":"The.Hunter.2011.BRRip.XviD.AC3-EMBER\n &lt;a href=&quot;\nhttp://www.imdb.com/title/tt1703148&quot; rel=&quot;nofollow&quot; target=&quot;_NEW&quot;&gt;\nhttp://www.imdb.com/title/tt1703148&lt;/a&gt;\n\nPlot:\nMartin, a mercenary, is sent from Europe by a mysterious biotech company to the Tasmanian wilderness on a \nhunt for the last Tasmanian tiger.\n\nSource                           : 720p.BluRay.x264-SAiMORNY Thanks\n\nGeneral\nFormat                           : AVI\nFormat/Info                      : Audio Video Interleave\nFile size                        : 1.51 GiB\nDuration                         : 1h 44mn\nOverall bit rate                 : 2 074 Kbps\nWriting application              : VirtualDubMod 1.5.10.3 | www.virtualdub-fr.org || (build 2550/release)\nWriting library                  : VirtualDubMod build 2550/release\n\nVideo\nID                               : 0\nFormat                           : MPEG-4 Visual\nFormat profile                   : Advanced Simple@L5\nFormat settings, BVOP            : 2\nFormat settings, QPel            : No\nFormat settings, GMC             : No warppoints\nFormat settings, Matrix          : Default (H.263)\nMuxing mode                      : Packed bitstream\nCodec ID                         : XVID\nCodec ID/Hint                    : XviD\nDuration                         : 1h 44mn\nBit rate                         : 1 692 Kbps\nWidth                            : 720 pixels\nHeight                           : 304 pixels\nDisplay aspect ratio             : 2.35:1\nFrame rate                       : 24.000 fps\nColor space                      : YUV\nChroma subsampling               : 4:2:0\nBit depth                        : 8 bits\nScan type                        : Progressive\nCompression mode                 : Lossy\nBits/(Pixel*Frame)               : 0.322\nStream size                      : 1.23 GiB (82%)\nWriting library                  : XviD 64\n\nAudio\nID                               : 1\nFormat                           : AC-3\nFormat/Info                      : Audio Coding 3\nMode extension                   : CM (complete main)\nCodec ID                         : 2000\nDuration                         : 1h 41mn\nBit rate mode                    : Constant\nBit rate                         : 384 Kbps\nChannel(s)                       : 6 channels\nChannel positions                : Front: L C R, Side: L R, LFE\nSampling rate                    : 48.0 KHz\nBit depth                        : 16 bits\nCompression mode                 : Lossy\nStream size                      : 279 MiB (18%)\nAlignment                        : Split accross interleaves\nInterleave, duration             : 43 ms (1.03 video frame)\nInterleave, preload duration     : 500 ms\n\nScreens\n\n[IMGw=http://i.imgur.com/VaqWD.png]\n[IMGw=http://i.imgur.com/invIw.png]\n[IMGw=http://i.imgur.com/BP8OM.png]\nGreetz to\n\nSHiRK, SHK, LKRG, UnKnOwN, IMAGiNE, SiC, BHRG, TaRiQ786, FLAWL3SS, Rx\n\nSAMURAi, ViSUALiSE, RemixHD, iNSANE, DTRG. Hive, ILLUMINATI, U.S.M\n\nMiSTERE, LEGiTiMATE\n\nAnd to all other groups past and present\n\nGot something to offer?\n\nthen you should know where to find us","torrent":{"xt":"urn:btih:4f58018e81c35055af168f54e403f34343d9f865","amp;dn":"The.Hunter.2011.BRRip.XviD.AC3-EMBER.","amp;tr":["udp%3A%2F%2Ftracker.openbittorrent.com%3A80","udp%3A%2F%2Fopen.demonii.com%3A1337","udp%3A%2F%2Ftracker.coppersurfer.tk%3A6969","udp%3A%2F%2Fexodus.desync.com%3A6969"],"infoHash":"4f58018e81c35055af168f54e403f34343d9f865","infoHashBuffer":{"type":"Buffer","data":[79,88,1,142,129,195,80,85,175,22,143,84,228,3,243,67,67,217,248,101]},"announce":[],"urlList":[]}}